<svg xmlns="http://www.w3.org/2000/svg" width="70" height="70" viewBox="0 0 70 70" style="width: 100%; height: 100%;"><desc>Made with illustrio</desc>
  
<g class="content"><circle cx="50%" cy="50%" r="27px" class="main-fill"></circle><g class="base"><g fill="none" fill-rule="evenodd" stroke="none" class="secondary-fill">
    
    
    <path fill="none" d="M28.4117647,0.149132941 L24.2941176,2.61972118 C22.8759559,3.51799329 22.3847416,4.42651753 21.4761029,8.12707412 C21.3188187,8.21448106 21.1571059,8.29182529 21,8.38442706 C16.3784744,11.1084771 12.9404145,14.7097094 11.9411765,17.4432506 C14.8712105,17.4432506 19.6725974,16.4613441 24.2941176,13.7373682 C28.2197284,14.7972588 29.4005382,14.6106471 30.8823529,13.7373682 L35,11.26678 L30.4705882,8.79619176 L28.4117647,5.50207412 L28.4117647,0.149132941 Z M6.29227941,4.26678 C5.32762835,4.28761529 4.42424829,4.49698941 3.61580882,4.92303 C-0.695868929,7.19523824 -0.652787018,14.6496329 3.71875,21.5608976 C8.09028706,28.4721624 15.1313371,32.2356712 19.4430147,29.9634712 C22.9911661,28.0936061 23.5925579,22.7165556 21.2573529,17.0186182 C19.4803564,17.751258 17.7589189,18.2824168 16.1746324,18.6142065 C16.7701368,20.7882471 16.4503257,22.6585351 15.1709559,23.3495006 C13.3287432,24.3444065 10.2099612,22.5066388 8.19669118,19.2447212 C6.18342118,15.9828035 6.045655,12.5319229 7.88786765,11.5370006 C8.23328265,11.3504547 8.62610165,11.2634859 9.04595588,11.26678 C10.1640581,11.2756749 11.480042,11.9281202 12.7132353,13.0425153 C13.7180108,11.8393985 14.9596279,10.6524756 16.3933824,9.52964765 C13.2039316,6.17101224 9.42739494,4.19901794 6.29227941,4.26678 Z M21.4117647,10.4432506 C22.0939987,10.4432506 22.6470588,10.9963107 22.6470588,11.6785447 C22.6470588,12.3607787 22.0939987,12.9138388 21.4117647,12.9138388 C20.7295307,12.9138388 20.1764706,12.3607787 20.1764706,11.6785447 C20.1764706,10.9963107 20.7295307,10.4432506 21.4117647,10.4432506 Z" transform="translate(17.294 19.616)" stroke="none" class="secondary-fill"></path>
  </g></g></g><style>
          .main-fill {fill: #5e72e4;}
          .main-stroke {stroke: #5e72e4;}
          .secondary-fill {fill: #ffffff;}
          .secondary-stroke {stroke: #ffffff;}

          .main-fill--darken {fill: #233dd2;}
          .main-stroke--darken {stroke: #233dd2;}
          .secondary-fill--darken {fill: #d9d9d9;}
          .secondary-stroke--darken {stroke: #d9d9d9;}

          .main-fill--darkener {fill: #1c31a7;}
          .main-stroke--darkener {stroke: #1c31a7;}
          .secondary-fill--darkener {fill: #bfbfbf;}
          .secondary-stroke--darkener {stroke: #bfbfbf;}
        </style></svg>